# xmcd
#
# Track frame offsets:
# 150
# 17512
# 64011
# 80545
# 101332
# 146980
# 181728
# 191913
# 210445
# 225513
# 252297
# 266413
# 291255
#
# Disc length: 4207 seconds
#
# Revision: 0
# Processed by: cddbd v1.5.2PL0 Copyright (c) Steve Scherf et al.
# Submitted via: Audion 3.0.2 (http://www.panic.com/audion/)
#
DISCID=b2106d0d
DTITLE=Disco 2 - Grandes adoradores
DYEAR=1900
DGENRE=
TTITLE0=Te alabare señor
TTITLE1=Hermano eres
TTITLE2=A la manera de Cristo
TTITLE3=Mi iglesia
TTITLE4=Nadie como tu
TTITLE5=Quiero levantar mis manos
TTITLE6=Canta con gozo
TTITLE7=Yo quiero mas de ti
TTITLE8=Deja que se mueva
TTITLE9=Jesus es el señor
TTITLE10=Sacrificio divino
TTITLE11=Enseñame
TTITLE12=Toma mi mano, dame tu mano
EXTD=
EXTT0=
EXTT1=
EXTT2=
EXTT3=
EXTT4=
EXTT5=
EXTT6=
EXTT7=
EXTT8=
EXTT9=
EXTT10=
EXTT11=
EXTT12=
PLAYORDER=
